# xmcd
#
# Track frame offsets: 
#        150
#        14715
#        28312
#        40940
#        52835
#        64932
#        76955
#        90107
#        102292
#        112190
#        123925
#        137637
#        159090
#        173775
#        183502
#        193655
#        205702
#        219875
#        227987
#        243302
#        254017
#
# Disc length: 3572 seconds
#
# Revision: 0
# Processed by: cddbd v1.5.2PL0 Copyright (c) Steve Scherf et al.
# Submitted via: ExactAudioCopy v0.90b4
#
DISCID=1e0df215
DTITLE=B. B. King - My Sweet Little Angel
DYEAR=1992
DGENRE=Blues
TTITLE0=Sweet Little Angel
TTITLE1=Crying Won't Help You Now
TTITLE2=Ten Long Years
TTITLE3=Quit My Baby
TTITLE4=Don't Look Now But I've Got the Blues
TTITLE5=You Know I go for You
TTITLE6=Why do Everything Happen to Me
TTITLE7=Worry Worry
TTITLE8=Shake Yours
TTITLE9=Please Accept My Love
TTITLE10=Treat Me Right
TTITLE11=Going Down Slow
TTITLE12=Ain't that just like a Woman
TTITLE13=Time to Say Goodbye
TTITLE14=Early Every Morning
TTITLE15=You've Been an Angel
TTITLE16=Growing Old
TTITLE17=In the Middle of an Island
TTITLE18=String Bean
TTITLE19=Recession Blues
TTITLE20=You Shouldn't have Left
EXTD=
EXTT0=
EXTT1=
EXTT2=
EXTT3=
EXTT4=
EXTT5=
EXTT6=
EXTT7=
EXTT8=
EXTT9=
EXTT10=
EXTT11=
EXTT12=
EXTT13=
EXTT14=
EXTT15=
EXTT16=
EXTT17=
EXTT18=
EXTT19=
EXTT20=
PLAYORDER=
